<svg xmlns="http://www.w3.org/2000/svg" viewBox="0 0 1600 900" role="img" aria-label="Kuala Lumpur skyline and tropical resort illustration">
  <defs>
    <linearGradient id="sky" x1="0" y1="0" x2="0" y2="1">
      <stop offset="0" stop-color="#5aa9e6"/>
      <stop offset="0.48" stop-color="#9bd3ea"/>
      <stop offset="1" stop-color="#f7d9b0"/>
    </linearGradient>
    <linearGradient id="water" x1="0" y1="0" x2="0" y2="1">
      <stop offset="0" stop-color="#55b9c7"/>
      <stop offset="1" stop-color="#0a7188"/>
    </linearGradient>
    <linearGradient id="tower" x1="0" y1="0" x2="1" y2="1">
      <stop offset="0" stop-color="#f7fbff"/>
      <stop offset="0.55" stop-color="#9cb5c6"/>
      <stop offset="1" stop-color="#5f7484"/>
    </linearGradient>
    <filter id="blur"><feGaussianBlur stdDeviation="18"/></filter>
  </defs>
  <rect width="1600" height="900" fill="url(#sky)"/>
  <circle cx="1220" cy="165" r="95" fill="#fff4c9" opacity=".8" filter="url(#blur)"/>
  <path d="M0 560 C260 500 410 540 650 510 C930 475 1140 525 1600 450 L1600 900 L0 900Z" fill="url(#water)"/>
  <path d="M0 610 C280 565 505 610 720 570 C980 520 1230 575 1600 520" fill="none" stroke="#d8ffff" stroke-width="10" opacity=".38"/>
  <g opacity=".97">
    <rect x="555" y="260" width="92" height="330" rx="14" fill="url(#tower)"/>
    <rect x="701" y="260" width="92" height="330" rx="14" fill="url(#tower)"/>
    <path d="M575 260 L600 145 L627 260Z" fill="#dfeaf0"/>
    <path d="M721 260 L746 145 L773 260Z" fill="#dfeaf0"/>
    <path d="M600 145 L600 72" stroke="#e8f4f8" stroke-width="10"/>
    <path d="M746 145 L746 72" stroke="#e8f4f8" stroke-width="10"/>
    <g stroke="#617d8e" stroke-width="6" opacity=".75">
      <path d="M555 320H647M555 380H647M555 440H647M555 500H647"/>
      <path d="M701 320H793M701 380H793M701 440H793M701 500H793"/>
    </g>
    <path d="M646 365 H702" stroke="#e9f5fa" stroke-width="18"/>
    <path d="M646 365 H702" stroke="#78909c" stroke-width="5"/>
  </g>
  <g fill="#334f5b" opacity=".88">
    <rect x="380" y="390" width="120" height="210" rx="10"/>
    <rect x="830" y="425" width="150" height="175" rx="10"/>
    <rect x="1010" y="365" width="88" height="235" rx="9"/>
    <rect x="1130" y="450" width="170" height="150" rx="12"/>
  </g>
  <g transform="translate(1125 590)">
    <ellipse cx="130" cy="78" rx="175" ry="74" fill="#f5f0df"/>
    <rect x="10" y="28" width="240" height="92" rx="46" fill="#fff8ec"/>
    <circle cx="130" cy="74" r="45" fill="#f7c654"/>
    <path d="M102 76c12-30 48-30 60 0-10 25-50 25-60 0Z" fill="#d75255"/>
    <path d="M130 42V15M103 55L82 34M157 55L178 34" stroke="#5e9e68" stroke-width="9" stroke-linecap="round"/>
  </g>
  <g fill="#1c725e">
    <path d="M100 650c42-140 100-165 120-250-1 96-20 173-44 250Z"/>
    <path d="M160 494c-70-56-125-46-154-35 65 3 103 31 154 85Z"/>
    <path d="M171 470c36-87 97-102 137-98-64 32-85 72-130 130Z"/>
    <path d="M139 490c-8-100-54-143-91-157 38 48 53 94 78 167Z"/>
  </g>
  <rect y="710" width="1600" height="190" fill="#093b45" opacity=".18"/>
</svg>
